# xmcd
#
# Track frame offsets:
#	150
#	15034
#	31483
#	43422
#	60745
#	76501
#	88906
#	108111
#	125094
#	139280
#
# Disc length: 2032 seconds
#
# Revision: 0
# Processed by: cddbd v1.5.2PL0 Copyright (c) Steve Scherf et al.
# Submitted via: audiograbber 1.83.01
#
DISCID=7c07ee0a
DTITLE=Bellamy Brothers - You Can Get Crazy
DYEAR=1980
DGENRE=Country
TTITLE0=Dancin' Cowboys
TTITLE1=Sugar Daddy
TTITLE2=Foolin' Around 
TTITLE3=Comin' Back For More 
TTITLE4=I Could Be Makin' Love To You
TTITLE5=Dead Aim
TTITLE6=You can Get Crazy With Me 
TTITLE7=Fast Train Out Of Texas
TTITLE8=Naked Lady
TTITLE9=Let Me Waltz Into Your Heart
EXTD=
EXTT0=
EXTT1=
EXTT2=
EXTT3=
EXTT4=
EXTT5=
EXTT6=
EXTT7=
EXTT8=
EXTT9=
PLAYORDER=
